<?xml version="1.0" encoding="UTF-8" standalone="no"?>
<!DOCTYPE svg PUBLIC "-//W3C//DTD SVG 1.1//EN" "http://www.w3.org/Graphics/SVG/1.1/DTD/svg11.dtd">
<svg width="100%" height="100%" viewBox="0 0 180000 69450" version="1.1" xmlns="http://www.w3.org/2000/svg" xmlns:xlink="http://www.w3.org/1999/xlink" xml:space="preserve" xmlns:serif="http://www.serif.com/" style="fill-rule:evenodd;clip-rule:evenodd;stroke-linecap:round;stroke-linejoin:round;stroke-miterlimit:1.5;">
    <g transform="matrix(1,0,0,1,17768.5,0)">
        <g id="Artboard1">
            <g>
                <g transform="matrix(1.246,0,0,1,-17768.5,0)">
                    <rect x="0" y="0" width="144462" height="69450" style="fill:rgb(7,7,8);"/>
                </g>
                <g>
                    <path d="M13779.1,16550.1L24116.9,6212.3" style="fill:none;stroke:rgb(175,37,48);stroke-width:687.17px;"/>
                </g>
                <g>
                    <path d="M28685.7,14446.8L39185.8,3946.6" style="fill:none;stroke:rgb(75,48,57);stroke-width:614.92px;"/>
                </g>
                <g>
                    <path d="M41405.3,13321.8L43096.1,11631.1" style="fill:none;stroke:rgb(109,79,157);stroke-width:506.42px;"/>
                </g>
                <g>
                    <path d="M66506.7,9115.5L76844.5,-1222.3" style="fill:none;stroke:rgb(212,39,53);stroke-width:614.92px;"/>
                </g>
                <g>
                    <path d="M86205.8,9940.62C86205.8,9940.62 93304.2,2804.91 93313,2833.41" style="stroke:rgb(75,48,57);stroke-width:506.42px;"/>
                </g>
                <g>
                    <path d="M108289,13443.5L110307,11425.7" style="fill:none;stroke:rgb(140,104,52);stroke-width:723.46px;"/>
                </g>
                <g>
                    <path d="M114417,14284.4L129252,-551.2" style="fill:none;stroke:rgb(212,39,53);stroke-width:614.92px;"/>
                </g>
                <g>
                    <path d="M122432,14183.4L129926,6689.19" style="fill:none;stroke:rgb(109,79,157);stroke-width:614.92px;"/>
                </g>
                <g>
                    <path d="M12779.9,32044.8L19858.7,24966" style="fill:none;stroke:rgb(251,119,108);stroke-width:1157.46px;"/>
                </g>
                <g transform="matrix(1,0,0,1,-12301.6,13594.9)">
                    <path d="M17613.2,36881.4L35657,18837.5" style="fill:none;stroke:rgb(245,132,53);stroke-width:542.54px;"/>
                </g>
                <g>
                    <path d="M30488.1,33225.7L37124.6,26589.2" style="fill:none;stroke:rgb(83,32,38);stroke-width:506.42px;"/>
                </g>
                <g>
                    <path d="M30712.4,39840.3L45338.9,25213.8" style="fill:none;stroke:rgb(251,119,108);stroke-width:614.92px;"/>
                </g>
                <g>
                    <path d="M62057.9,31153L63893.3,29317.6" style="fill:none;stroke:rgb(109,79,157);stroke-width:687.17px;"/>
                </g>
                <g>
                    <path d="M87016.2,32015.8L90678.2,28353.8" style="fill:none;stroke:rgb(245,132,53);stroke-width:614.92px;"/>
                </g>
                <g>
                    <path d="M106247,35503L117352,24398.3" style="fill:none;stroke:rgb(75,48,57);stroke-width:506.42px;"/>
                </g>
                <g>
                    <path d="M106712,41851.7L125379,23184.9" style="fill:none;stroke:rgb(245,132,53);stroke-width:434.04px;"/>
                </g>
                <g>
                    <path d="M121962,36510.9L130119,28353.9" style="fill:none;stroke:rgb(251,119,108);stroke-width:1302.08px;"/>
                </g>
                <g>
                    <path d="M54657.1,24889.6L56674.9,22871.8" style="fill:none;stroke:rgb(140,104,52);stroke-width:723.46px;"/>
                </g>
                <g>
                    <path d="M63658.7,40430.6L78494.2,25595" style="fill:none;stroke:rgb(212,39,53);stroke-width:614.92px;"/>
                </g>
                <g>
                    <path d="M72231.2,52602.1L79725.4,45107.9" style="fill:none;stroke:rgb(109,79,157);stroke-width:614.92px;"/>
                </g>
                <g>
                    <path d="M48040.2,76337.2L59144.9,65232.5" style="fill:none;stroke:rgb(75,48,57);stroke-width:506.42px;"/>
                </g>
                <g>
                    <path d="M48506,82685.9L67172.7,64019.1" style="fill:none;stroke:rgb(245,132,53);stroke-width:434.04px;"/>
                </g>
                <g>
                    <path d="M89552.2,56026.1L99890,45688.3" style="fill:none;stroke:rgb(175,37,48);stroke-width:687.17px;"/>
                </g>
                <g>
                    <path d="M104459,53922.7L114959,43422.5" style="fill:none;stroke:rgb(75,48,57);stroke-width:614.92px;"/>
                </g>
                <g>
                    <path d="M117178,52797.7L118869,51107" style="fill:none;stroke:rgb(109,79,157);stroke-width:506.42px;"/>
                </g>
                <g>
                    <path d="M88553,71520.7L95631.8,64441.9" style="fill:none;stroke:rgb(251,119,108);stroke-width:1157.46px;"/>
                </g>
                <g>
                    <path d="M93386.2,76357.4L111430,58313.5" style="fill:none;stroke:rgb(245,132,53);stroke-width:542.54px;"/>
                </g>
                <g>
                    <path d="M106261,72701.7L112897,66065.2" style="fill:none;stroke:rgb(83,32,38);stroke-width:506.42px;"/>
                </g>
                <g>
                    <path d="M29264,57505.2L35900.5,50868.7" style="fill:none;stroke:rgb(83,32,38);stroke-width:506.42px;"/>
                </g>
                <g>
                    <path d="M106485,79316.2L121112,64689.7" style="fill:none;stroke:rgb(251,119,108);stroke-width:614.92px;"/>
                </g>
                <g>
                    <path d="M37967.5,55464.2L52594,40837.7" style="fill:none;stroke:rgb(251,119,108);stroke-width:614.92px;"/>
                </g>
            </g>
            <g transform="matrix(1,0,0,1,122855,0)">
                <g>
                    <path d="M13779.1,16550.1L24116.9,6212.3" style="fill:none;stroke:rgb(175,37,48);stroke-width:687.17px;"/>
                    <g transform="matrix(0.594172,0.405828,0.405828,0.594172,-42259,3031.91)">
                        <path d="M13779.1,16550.1L24116.9,6212.3" style="fill:none;stroke:rgb(175,37,48);stroke-width:687.17px;"/>
                    </g>
                </g>
                <g>
                    <path d="M28685.7,14446.8L39185.8,3946.6" style="fill:none;stroke:rgb(75,48,57);stroke-width:614.92px;"/>
                </g>
                <g>
                    <path d="M17613.2,36881.4L35657,18837.5" style="fill:none;stroke:rgb(245,132,53);stroke-width:542.54px;"/>
                </g>
                <g>
                    <path d="M30488.1,33225.7L37124.6,26589.2" style="fill:none;stroke:rgb(83,32,38);stroke-width:506.42px;"/>
                </g>
                <g>
                    <path d="M30712.4,39840.3L45338.9,25213.8" style="fill:none;stroke:rgb(251,119,108);stroke-width:614.92px;"/>
                </g>
                <g>
                    <path d="M8300.21,49949.7L18638,39611.9" style="fill:none;stroke:rgb(212,39,53);stroke-width:614.92px;"/>
                </g>
                <g>
                    <path d="M16389.1,61160.9L34432.9,43117" style="fill:none;stroke:rgb(245,132,53);stroke-width:542.54px;"/>
                </g>
                <g>
                    <path d="M29264,57505.2L35900.5,50868.7" style="fill:none;stroke:rgb(83,32,38);stroke-width:506.42px;"/>
                </g>
                <g>
                    <path d="M37967.5,55464.2L52594,40837.7" style="fill:none;stroke:rgb(251,119,108);stroke-width:614.92px;"/>
                </g>
            </g>
            <g transform="matrix(1,0,0,1,-55523.3,0)">
                <g>
                    <path d="M28685.7,14446.8L39185.8,3946.6" style="fill:none;stroke:rgb(75,48,57);stroke-width:614.92px;"/>
                </g>
                <g>
                    <path d="M41405.3,13321.8L43096.1,11631.1" style="fill:none;stroke:rgb(109,79,157);stroke-width:506.42px;"/>
                </g>
                <g transform="matrix(1,0,0,1,-10840.7,1222.3)">
                    <path d="M66506.7,9115.5L76844.5,-1222.3" style="fill:none;stroke:rgb(212,39,53);stroke-width:614.92px;"/>
                </g>
                <g>
                    <path d="M30712.4,39840.3L45338.9,25213.8" style="fill:none;stroke:rgb(251,119,108);stroke-width:614.92px;"/>
                </g>
                <g>
                    <path d="M62057.9,31153L63893.3,29317.6" style="fill:none;stroke:rgb(109,79,157);stroke-width:687.17px;"/>
                </g>
                <g>
                    <path d="M54657.1,24889.6L56674.9,22871.8" style="fill:none;stroke:rgb(140,104,52);stroke-width:723.46px;"/>
                </g>
                <g>
                    <path d="M72231.2,52602.1L79725.4,45107.9" style="fill:none;stroke:rgb(109,79,157);stroke-width:614.92px;"/>
                </g>
                <g>
                    <path d="M48040.2,76337.2L59144.9,65232.5" style="fill:none;stroke:rgb(75,48,57);stroke-width:506.42px;"/>
                </g>
                <g>
                    <path d="M48506,82685.9L67172.7,64019.1" style="fill:none;stroke:rgb(245,132,53);stroke-width:434.04px;"/>
                </g>
                <g>
                    <path d="M37967.5,55464.2L52594,40837.7" style="fill:none;stroke:rgb(251,119,108);stroke-width:614.92px;"/>
                </g>
            </g>
        </g>
    </g>
</svg>
