<svg xmlns="http://www.w3.org/2000/svg" viewBox="0 0 512 512" id="code-document"><g><g><g><g><path fill="#fedb41" d="M429.21,137.66V358.18a30,30,0,0,1-30,30H338.07V203.03l-84.46-79.21H173.93V88.45a30,30,0,0,1,30-30H344.75v59.21a20,20,0,0,0,20,20Z"></path><path fill="#00acea" d="M429.21,137.66H364.75a20,20,0,0,1-20-20V58.45Z"></path><path fill="#00efd1" d="M338.07,388.18v35.37a30,30,0,0,1-30,30H112.79a30,30,0,0,1-30-30V153.82a30,30,0,0,1,30-30H253.61v59.21a20,20,0,0,0,20,20h64.46Z"></path><path fill="#00acea" d="M338.07,203.03H273.61a20,20,0,0,1-20-20V123.82Z"></path></g><g><path fill="#083863" d="M112.79,462H308.07c20.953,0,37.93-17.5,37.93-38.45V396h53.21A37.711,37.711,0,0,0,437,358.18V137.66a7.9,7.9,0,0,0-2.422-5.835L350.17,52.39A8.105,8.105,0,0,0,344.75,50H203.93C182.977,50,166,67.5,166,88.45V116H112.79A37.711,37.711,0,0,0,75,153.82V423.55C75,444.5,91.837,462,112.79,462ZM262,142.29,317.846,195H273.61A11.661,11.661,0,0,1,262,183.03Zm91-65.37L408.985,130H364.75c-6.617,0-11.75-5.723-11.75-12.34ZM182,88.45C182,76.319,191.8,66,203.93,66H337v51.66C337,133.1,349.311,146,364.75,146H421V358.18A21.693,21.693,0,0,1,399.21,380H346V203.03a7.971,7.971,0,0,0-2.492-5.836l-84.443-79.12A7.874,7.874,0,0,0,253.61,116H182ZM91,153.82A21.693,21.693,0,0,1,112.79,132H246v51.03A27.676,27.676,0,0,0,273.61,211H330V423.55c0,12.131-9.8,22.45-21.93,22.45H112.79C100.659,446,91,435.681,91,423.55Z"></path><path fill="#083863" d="M278.43,398h-136a8,8,0,0,0,0,16h136a8,8,0,1,0,0-16Z"></path><polygon fill="#083863" points="179.697 333.183 145.514 299 179.697 264.817 168.383 253.503 122.887 299 168.383 344.497 179.697 333.183"></polygon><polygon fill="#083863" points="251.617 344.497 297.113 299 251.617 253.503 240.303 264.817 274.486 299 240.303 333.183 251.617 344.497"></polygon><rect width="129.507" height="16.001" x="145.247" y="291" fill="#083863" transform="rotate(-74.807 210 299)"></rect></g></g></g></g></svg>