<svg id="SvgjsSvg1001" width="288" height="288" xmlns="http://www.w3.org/2000/svg" version="1.1" xmlns:xlink="http://www.w3.org/1999/xlink" xmlns:svgjs="http://svgjs.com/svgjs"><defs id="SvgjsDefs1002"></defs><g id="SvgjsG1008"><svg xmlns="http://www.w3.org/2000/svg" viewBox="0 0 64 64" width="288" height="288"><path fill="#f0bb73" d="M11.73 7.21h6.8v11.5h-6.8z" class="colorf0bb73 svgShape"></path><path fill="#dd9b54" d="M10.79 4.55h8.68v2.66h-8.68z" class="colordd9b54 svgShape"></path><path fill="#eb8d8d" d="M3.58 60.22h56.84V64H3.58z" class="colord3d3d3 svgShape"></path><path fill="#ffeb91" d="M9.09 31.44h45.82V64H9.09z" class="colorf9f9f9 svgShape"></path><path fill="#eb8d8d" d="M9.09 29.9h45.82v1.54H9.09z" class="colord3d3d3 svgShape"></path><path fill="#da4765" d="M30.3.69 4.34 25.68c-1.59 1.53-.51 4.22 1.7 4.22h51.92c2.21 0 3.3-2.69 1.7-4.22L33.7.69a2.44 2.44 0 0 0-3.4 0z" class="colorda4765 svgShape"></path><path fill="#eb8d8d" d="M31.54 64H14.18V51.26c0-4.79 3.89-8.68 8.68-8.68 4.79 0 8.68 3.89 8.68 8.68V64z" class="colord3d3d3 svgShape"></path><path fill="#59cbef" d="M43.06 40.42h6.76v6.76h-6.76zM43.06 48.27h6.76v6.76h-6.76zM35.2 40.42h6.76v6.76H35.2zM35.2 48.27h6.76v6.76H35.2z" class="color59cbef svgShape"></path><path fill="#b33254" d="M32 23.84c-2.83 0-5.13-2.3-5.13-5.13s2.3-5.13 5.13-5.13 5.13 2.3 5.13 5.13-2.3 5.13-5.13 5.13z" class="colorb33254 svgShape"></path></svg></g></svg>