<svg xmlns="http://www.w3.org/2000/svg" viewBox="0 0 64 64" id="seo-tags"><g><path fill="#ff3c38" d="M61.207,35.9932,32.0962,6.8921A2.9823,2.9823,0,0,0,29.97,6h-8a1,1,0,0,0-.9139,1.3853c.3234.7665,1.1234.407,1.6165.9116l29.12,29.1108a1.0166,1.0166,0,0,1,0,1.4155l-14.38,14.38a1,1,0,0,0-.0015,1.4126l2.5811,2.5913a3.03,3.03,0,0,0,4.2446,0l16.97-16.97A3.03,3.03,0,0,0,61.207,35.9932Z"></path><path fill="#3abeff" d="M38.6318,37.8624c-3.1469-3.1469-8.9541,2.8734-5.6373,5.8886C36.1767,46.6439,41.7293,40.96,38.6318,37.8624Z"></path><path fill="#3abeff" d="M53.21,35.99,24.1,6.89A3.03,3.03,0,0,0,21.97,6H5A3.0088,3.0088,0,0,0,2,9V25.97a3.0219,3.0219,0,0,0,.88,2.12L31.99,57.21a3.0412,3.0412,0,0,0,4.25,0L53.21,40.24A3.0412,3.0412,0,0,0,53.21,35.99ZM7.49,16.48a4,4,0,1,1,4,4A4.0054,4.0054,0,0,1,7.49,16.48ZM17.9,30.61c-1.9032-.7069-3.7522-2.7746-3.6988-4.882A2.6825,2.6825,0,0,1,15.263,23.44a1.01,1.01,0,0,1,1.4611,1.0325c-.0876.9114-.6733,1.5322-.3571,2.5012a2.81,2.81,0,0,0,2.3161,1.8473,1.4089,1.4089,0,0,0,1.53-1.6347c-.16-1.0507-1.0161-1.975-1.4914-2.893-.95-1.8354-.9815-4.3256,1.4294-5.0088C22.2092,18.7017,24.4354,20.569,25.3,22.3a3.3934,3.3934,0,0,1,.29,2.56c-.282.83-1.6335,1.8255-2.1784.575-.344-.79.4429-1.686.2-2.5377a2.66,2.66,0,0,0-2.3107-1.79c-1.5443.0951-.9476,1.76-.4748,2.5973a13.0945,13.0945,0,0,1,1.6562,3.3274C23.0935,29.6722,20.2187,31.4919,17.9,30.61Zm9.46,7.24a.9317.9317,0,1,1-1.31,1.3l-4.46-4.46a1.2751,1.2751,0,0,1,0-2.01l6.09-6.09a1.2859,1.2859,0,0,1,2.01,0l4.33,4.33c.99.99-.2568,2.2732-1.26,1.27l-3.7-3.7-1.99,1.99,3.41,3.4c.9334.9708-.2918,2.2263-1.24,1.24l-3.4-3.4-2.31,2.3Zm14.14,4.2c-.9485,2.7861-4.1785,5.3585-7.2163,4.5533-2.9035-.77-5.17-4.03-4.2453-6.9954.8777-2.8148,4.0523-5.3916,7.0954-4.6945C40.1267,35.5989,42.54,39.0281,41.5,42.05Z"></path></g></svg>