<svg xmlns="http://www.w3.org/2000/svg" viewBox="0 0 64 64" id="tablet"><path fill="#8c9ba7" d="M10.62 59.33c0 .93.76 1.69 1.69 1.69h37.71c.93 0 1.69-.76 1.69-1.69V6.85c0-.93-.76-1.69-1.69-1.69H12.31c-.93 0-1.69.76-1.69 1.69v52.48zm0 0"></path><path fill="#798b97" d="M14.16 59.33V6.85c0-.93.76-1.69 1.69-1.69h-3.54c-.93 0-1.69.76-1.69 1.69v52.49c0 .93.76 1.69 1.69 1.69h3.54a1.71 1.71 0 0 1-1.69-1.7zm0 0"></path><path fill="#dde5eb" d="M33.55 58.03h-4.77c-.45 0-.82-.37-.82-.82 0-.45.37-.82.82-.82h4.77c.45 0 .82.37.82.82 0 .45-.37.82-.82.82zm0 0"></path><path fill="#5bddfc" d="M47.49 8.64H14.83c-.35 0-.64.29-.64.63v43.69c0 .35.29.63.64.63h32.66c.35 0 .64-.29.64-.63V9.28c0-.35-.29-.64-.64-.64zm0 0"></path><path fill="#62dafa" d="M47.49 8.64H14.83c-.35 0-.64.29-.64.63v3.97h33.94V9.28c0-.35-.29-.64-.64-.64zm0 0"></path><path fill="#fff" d="M17.92 16.52c-.19 0-.34.15-.34.34v8.54c0 .19.15.34.34.34H44.4c.19 0 .34-.15.34-.34v-8.54c0-.19-.15-.34-.34-.34H17.92zm0 0"></path><path fill="#dff6fd" d="M21.16 25.39v-8.54c0-.19.15-.34.34-.34h-3.58c-.19 0-.34.15-.34.34v8.54c0 .19.15.34.34.34h3.58c-.19 0-.34-.15-.34-.34zm0 0"></path><path fill="#fff" d="M17.92 29.05c-.19 0-.34.15-.34.34v4.18c0 .19.15.34.34.34H44.4c.19 0 .34-.15.34-.34v-4.18c0-.19-.15-.34-.34-.34H17.92zm0 0"></path><path fill="#dff6fd" d="M21.16 33.56v-4.18c0-.19.15-.34.34-.34h-3.58c-.19 0-.34.15-.34.34v4.18c0 .19.15.34.34.34h3.58c-.19 0-.34-.15-.34-.34zm0 0"></path><path fill="#fff" d="M17.92 37.15c-.19 0-.34.15-.34.34v4.18c0 .19.15.34.34.34H44.4c.19 0 .34-.15.34-.34v-4.18c0-.19-.15-.34-.34-.34H17.92zm0 0"></path><path fill="#dff6fd" d="M21.16 41.67v-4.18c0-.19.15-.34.34-.34h-3.58c-.19 0-.34.15-.34.34v4.18c0 .19.15.34.34.34h3.58c-.19 0-.34-.16-.34-.34zm0 0"></path><path fill="#fff" d="M17.92 45.26c-.19 0-.34.15-.34.34v4.18c0 .19.15.34.34.34H44.4c.19 0 .34-.15.34-.34V45.6c0-.19-.15-.34-.34-.34H17.92zm0 0"></path><path fill="#dff6fd" d="M21.16 49.77V45.6c0-.19.15-.34.34-.34h-3.58c-.19 0-.34.15-.34.34v4.18c0 .19.15.34.34.34h3.58a.352.352 0 0 1-.34-.35zm0 0"></path><path fill="#d73131" d="M17.99 10.93c0 .46-.37.84-.82.84-.45 0-.82-.38-.82-.84 0-.46.37-.84.82-.84.45 0 .82.37.82.84zm0 0"></path><path fill="#fdd302" d="M20.46 10.93c0 .45-.37.82-.82.82-.45 0-.82-.37-.82-.82 0-.45.37-.82.82-.82.45 0 .82.37.82.82zm0 0"></path><path fill="#07b17b" d="M22.93 10.93c0 .45-.37.82-.82.82-.45 0-.82-.37-.82-.82 0-.45.37-.82.82-.82.45 0 .82.37.82.82zm0 0"></path><path fill="#0592fb" d="M45.75 10.93c0 .45-.37.82-.82.82-.45 0-.82-.37-.82-.82 0-.45.37-.82.82-.82.45 0 .82.37.82.82zm0 0"></path></svg>